PathFileType	4	(X/Y/Z)	C:/Users/beibeiliu/ov580/test_trc\sequence.30_training_dense_right.trc
DataRate	CameraRate	NumFrames	NumMarkers	Units	OrigDataRate	OrigDataStartFrame	OrigNumFrames
120	120	20	19	mm	120	266	354
Frame#	Time	ThumbCMC			ThumbMCP			ThumbIP			ThumbTip			IndexMCP			IndexPIP			IndexTip			MiddleMCP			MiddlePIP			MiddleTip			RingMCP			RingPIP			RingTip			PinkyMCP			PinkyPIP			PinkyTip			BackHand1			BackHand2			BackHand3	
		X0	Y0	Z0	X1	Y1	Z1	X2	Y2	Z2	X3	Y3	Z3	X4	Y4	Z4	X5	Y5	Z5	X6	Y6	Z6	X7	Y7	Z7	X8	Y8	Z8	X9	Y9	Z9	X10	Y10	Z10	X11	Y11	Z11	X12	Y12	Z12	X13	Y13	Z13	X14	Y14	Z14	X15	Y15	Z15	X16	Y16	Z16	X17	Y17	Z17	X18	Y18	Z18	
265	2.20833	151.295	-26.4889	50.6353	147.798	-39.0945	26.6629	141.496	-44.0744	2.92321	136.871	-50.6381	-13.9447	157.258	-10.1446	-13.8354	170.595	-27.0121	-30.1127	190.401	-47.8216	-22.8295	166.776	11.1198	-16.886	170.268	10.3497	-36.6142	176.529	13.788	-61.0578	181.59	22.9825	-2.91215	184.766	33.2249	-22.8017	184.515	37.9925	-37.5748	199.752	30.4943	17.1783	200.04	36.3058	6.83128	201.626	54.7378	-1.29303	178.047	18.9656	38.3403	172.111	15.225	68.4088	151.458	2.80569	48.6188	
266	2.21667	147.872	-24.8011	49.2575	148.176	-34.8971	27.2717	143.584	-36.9699	5.17416	135.86	-45.631	-15.3952	156.261	-3.9975	-10.653	168.525	-24.5179	-31.7266	186.319	-42.2847	-30.4816	169.97	15.7116	-15.4965	170.541	16.3925	-37.3927	172.061	18.5	-59.9137	184.072	24.4298	-2.81441	192.972	31.9352	-19.1055	193.466	39.4763	-40.6626	200.71	26.2217	18.4843	209.103	39.0807	8.51973	205.27	55.0082	-1.80806	179.708	21.3195	41.7176	177.069	16.7351	64.1942	156.513	6.33092	50.2714	
267	2.225	151.653	-18.8226	53.6838	146.043	-27.9099	26.1803	141.309	-30.8016	4.06984	137.205	-35.2604	-14.5961	153.463	-2.00697	-10.7467	167.207	-14.6539	-30.0194	183.849	-39.8335	-35.907	170.242	20.0076	-13.1302	174.932	23.1236	-35.0276	175.97	28.7259	-56.2715	191.682	27.2762	-1.87356	196.16	31.2532	-23.1177	201.321	37.246	-44.2238	207.202	26.4765	18.378	215.446	36.5933	9.07699	218.017	54.4055	-1.338	184.668	23.7682	40.561	180.798	19.9554	66.6211	157.857	11.7502	48.0388	
268	2.23333	148.515	-15.7425	55.3798	141.849	-24.8576	25.897	140.339	-25.8472	7.09006	132.821	-27.9735	-15.5597	158.633	4.71756	-12.9236	163.149	-13.6988	-30.7341	174.859	-34.1759	-38.5325	175.881	24.4547	-10.7997	175.506	26.3537	-31.0813	183.019	35.8183	-56.2535	195.642	26.8547	-2.81625	201.658	28.5408	-23.7914	207.248	29.8097	-43.2255	213.791	25.8779	19.8276	221.134	37.2926	6.31849	227.477	51.7288	1.28648	187.708	22.9612	41.5814	187.827	17.6835	69.9952	159.914	13.1113	54.6794	
269	2.24167	153.11	-10.212	53.3703	144.585	-17.9574	27.6683	138.937	-20.0852	5.90776	133.239	-21.8359	-12.948	156.19	8.42963	-8.73306	165.143	-7.51289	-30.4438	173.754	-26.4985	-38.7572	176.361	26.3608	-7.10728	182.933	31.6998	-31.8009	187.501	39.0842	-54.3429	200.921	25.0559	1.35262	205.552	24.9797	-21.0362	210.528	22.5705	-41.8491	219.502	24.7572	20.2112	225.668	33.2682	6.60759	233.341	47.1418	-0.754875	191.469	24.7784	43.7609	189.218	20.3711	68.3647	163.053	17.4494	54.3391	
270	2.25	149.272	-7.63699	54.4996	142.559	-16.6688	30.2655	141.193	-15.6279	9.66219	135.995	-15.3699	-10.9735	160.789	14.2271	-7.51863	166.02	-2.72298	-29.1636	171.26	-22.7802	-38.8189	178.499	29.4844	-7.03974	183.922	32.9156	-28.2323	184.296	40.2003	-54.6833	202.664	24.2263	-1.46697	206.341	21.4885	-26.9607	210.788	15.4993	-47.7694	220.04	23.2829	20.5248	228.073	30.1044	7.53112	231.759	44.4787	-4.05483	194.543	22.0546	47.6655	190.46	19.2963	73.0438	167.77	20.5761	58.8099	
271	2.25833	151.416	-6.14252	56.4709	142.47	-13.1898	30.03	137.287	-12.7209	9.05074	133.975	-9.62967	-10.7071	159.83	16.6821	-4.8074	162.538	1.75568	-27.1409	170.737	-23.0078	-39.2286	181.16	31.1886	-5.27225	185.769	35.2504	-26.9938	188.53	40.1261	-50.4784	202.713	24.0841	0.401807	209.797	18.4599	-25.3427	208.569	10.1939	-45.4841	219.369	23.3402	18.6185	229.714	31.8854	3.91732	232.435	44.6511	-3.07429	195.51	26.5933	45.0883	198.307	17.1836	74.0793	168.678	22.5908	58.8474	
272	2.26667	153.624	-2.62656	54.8836	146.335	-8.05893	30.1789	141.252	-5.28639	7.86737	134.233	-6.93589	-7.96341	158.849	20.2485	-2.32472	164.129	6.72767	-26.1379	166.344	-14.9812	-37.9381	186.135	34.7165	-5.97167	186.658	37.6724	-28.3255	189.382	42.7645	-54.6968	201.326	24.83	0.789295	208.489	17.2087	-26.9752	205.149	5.75915	-43.1339	223.351	24.8365	15.6596	231.001	31.8518	3.41612	237.289	44.5777	-5.20456	197.735	24.4596	46.2184	198.184	20.5901	72.3929	175.779	23.1897	59.433	
273	2.275	154.428	-2.06807	58.0571	148.213	-4.49785	29.726	138.991	-5.94397	10.5644	130.598	-3.64158	-8.00092	161.755	24.1497	-1.61773	161.832	10.381	-24.5568	167.465	-12.5739	-36.44	187.319	35.5349	-2.65671	187.578	39.2511	-29.1379	190.04	43.1107	-49.879	205.004	23.6728	-2.55339	206.79	14.3294	-25.4882	200.285	-1.34573	-43.9426	224.65	22.9627	18.1133	226.566	30.8129	3.91709	234.301	41.8968	-4.04375	198.401	25.3229	50.6689	199.235	18.3952	70.4375	175.897	25.0615	56.6413	
274	2.28333	157.247	-1.44292	60.2161	148.526	-5.38548	34.186	137.964	-1.236	8.02171	133.426	-0.918703	-7.91742	161.11	24.7702	-4.39964	164.258	11.5038	-24.8662	162.974	-11.5683	-36.8584	186.038	36.907	-6.32459	189.614	39.7989	-28.7962	189.969	45.4676	-51.6328	206.613	24.2151	-4.93696	203.426	14.9161	-23.0798	201.112	-6.25964	-40.4934	226.319	22.1671	18.4898	231.014	30.805	2.73016	238.437	40.3301	-7.38527	200.568	27.3717	49.4195	204.643	18.3677	76.1499	178.926	24.556	58.1519	
275	2.29167	158.409	0.720778	57.8315	145.68	-3.27734	30.9697	142.88	1.20386	9.91219	131.793	1.05997	-6.93287	165.844	27.1888	-0.630493	163.651	11.5605	-25.302	164.781	-14.2187	-37.2663	191.38	36.7825	-3.98305	190.914	39.3622	-28.5395	194.449	43.0304	-49.0066	207.858	24.2476	0.521301	207.469	10.6849	-23.9281	198.639	-7.24513	-35.7663	227.558	24.2574	13.8872	229.005	30.5202	-0.879765	237.616	40.2213	-8.91366	206.183	26.6836	45.1511	202.435	19.1406	73.9508	181.102	24.1751	59.7128	
276	2.3	159.561	0.497128	59.7264	146.549	-3.09074	32.2443	138.602	-0.128864	10.8912	131.304	2.13815	-7.05745	166.122	28.0631	-0.746194	168.081	12.6165	-23.6599	165.602	-14.2773	-36.4701	188.858	36.6852	-2.31806	193.549	39.2864	-29.1146	198.221	42.4257	-48.8851	206.396	23.0157	-5.33194	204.144	7.709	-26.2824	199.226	-10.3373	-33.9469	224.678	24.9808	13.0276	229.905	30.1564	-2.48614	239.78	40.0479	-10.3105	204.664	26.7561	44.9444	207.246	16.6982	73.6857	182.308	25.9125	58.0413	
277	2.30833	161.81	4.25844	54.3306	151.189	0.534738	30.1091	141.501	2.81385	7.82961	136.814	2.02154	-5.72578	168.807	26.8466	-4.46781	166.251	11.7686	-23.7342	170.361	-15.1728	-36.5438	193.154	36.8681	-3.96108	194.852	38.245	-26.6465	201.836	41.5616	-54.4997	206.639	22.0541	-5.30715	207.948	7.74574	-23.8187	195.214	-15.3564	-33.8773	227.745	21.9285	14.2621	236.022	28.2593	-2.3538	239.881	39.2283	-14.1034	207.59	26.7503	45.7221	206.216	18.6231	74.0318	179.161	28.0571	58.7396	
278	2.31667	158.828	3.38742	54.7164	151.798	1.00604	28.2369	142.962	2.3146	7.53547	135.658	3.73566	-9.71489	167.199	26.7347	-4.58688	168.154	9.44826	-25.3738	171.194	-11.5661	-34.7927	196.249	35.8013	-5.66209	194.562	38.0536	-26.4768	198.432	41.2991	-51.3023	207.228	21.4364	-5.69002	206.848	5.79787	-24.6072	198.65	-17.1376	-31.2193	228.607	21.9264	15.3323	236.281	26.2641	1.18924	244.096	40.2207	-13.0658	207.907	26.3798	45.2906	209.578	18.7045	74.1588	179.636	27.2926	57.9717	
279	2.325	160.075	2.6182	56.3442	150.425	-1.65515	29.8844	141.256	0.359213	9.40738	137.307	2.01491	-6.62994	170.924	25.7215	-5.03048	170.543	8.19211	-25.6266	167.611	-12.0835	-35.8191	195.096	35.5065	-5.00482	196.866	38.0239	-30.0396	199.113	40.7175	-50.2035	207.794	21.7408	-4.32858	207.406	5.06884	-24.6576	201.022	-16.321	-31.2461	231.476	21.0761	15.2284	236.701	26.6356	-0.0688815	241.758	40.9227	-12.1707	210.382	25.6694	49.617	205.29	20.3509	72.4247	181.754	28.2672	59.0475	
280	2.33333	159.293	0.929706	57.1652	152.255	-2.02681	31.1498	145.569	3.2189	5.55673	136.086	2.89532	-10.0036	172.203	26.0256	-3.75568	169.102	8.05952	-26.9179	168.705	-15.6632	-35.827	195.498	36.7295	-8.90503	198.092	36.9397	-27.2519	200.983	41.2513	-53.5226	207.01	21.27	-5.90188	205.801	7.58619	-23.6366	201.099	-18.7921	-30.8511	228.101	22.5677	16.1409	236.688	28.4536	-0.851143	241.013	41.0224	-14.2036	207.661	27.9209	45.4249	207.14	19.7242	71.6484	180.584	27.2068	55.908	
281	2.34167	160.329	2.8502	56.182	151.803	-0.371254	28.1534	147.295	3.5129	6.65619	135.972	2.38701	-9.07699	170.932	26.5004	-2.61757	167.403	9.55476	-24.9244	171.114	-12.1703	-34.9881	195.539	36.6635	-4.73815	193.653	38.9725	-30.6707	201.477	40.6263	-52.2371	210.976	21.3087	-0.760128	206.079	5.23125	-24.7138	197.015	-19.1413	-30.1773	227.869	22.7201	15.3649	234.164	28.4833	-0.604086	245.189	41.1233	-13.355	207.102	25.9474	46.2709	205.456	18.9787	71.5524	180.029	27.3046	57.8097	
282	2.35	159.442	2.89462	55.8455	149.075	-1.63183	29.4511	145.266	0.937925	9.60878	138.56	2.37682	-7.75451	167.207	24.6088	-5.64055	171.236	9.69929	-25.2676	173.164	-14.9076	-34.9324	196.655	36.2281	-7.78033	195.969	37.963	-30.9337	199.62	40.7791	-54.3033	209.188	20.6686	-5.87848	206.441	4.61531	-24.1947	197.247	-17.327	-30.6223	228.134	22.8878	16.0703	235.264	30.3526	-2.23832	240.174	42.2399	-13.7004	209.826	27.5956	48.0524	204.949	18.1934	74.3448	179.605	28.7693	57.5182	
283	2.35833	161.182	2.17141	55.9104	151.885	-0.538602	27.8386	147.791	2.00788	7.58494	140.933	4.63038	-9.67105	167.866	26.4396	-2.45785	170.905	7.1851	-26.7694	170.717	-16.7958	-35.8911	193.752	35.6886	-4.47074	196.968	36.7584	-29.5815	201.107	40.2566	-53.3055	212.614	20.8795	-2.74283	208.045	4.01839	-24.9975	201.164	-17.4926	-30.8799	230.417	21.541	16.7128	237.024	27.4669	0.790102	240.146	38.2243	-12.3739	208.53	26.1226	46.8071	209.516	18.1618	73.1681	180.809	27.4768	59.0171	
284	2.36667	163.425	1.77816	56.9826	151.335	-0.958523	28.7074	145.745	0.927763	10.9214	136.848	3.69045	-11.049	167.606	25.9484	-1.68887	168.372	9.24295	-25.7867	169.335	-16.4937	-35.675	193.882	35.978	-5.8612	195.301	38.1741	-30.6444	198.214	41.1896	-54.6058	211.389	21.8364	-4.67941	210.241	5.8824	-22.8937	199.241	-19.1321	-30.5745	227.447	24.4013	12.9597	232.933	31.1387	-3.07423	239.816	39.1044	-12.5575	210.971	25.9615	46.0789	208.278	19.142	74.9835	184.952	27.3646	60.1288	
